<svg xmlns="http://www.w3.org/2000/svg" viewBox="0 0 284 284"><defs/><linearGradient id="a" x1="-1459.43" x2="-1004.8" y1="454.45" y2="117.31" gradientUnits="userSpaceOnUse"><stop offset="0" stop-color="#00112a"/><stop offset=".14" stop-color="#00152f"/><stop offset=".3" stop-color="#00203c"/><stop offset=".47" stop-color="#003352"/><stop offset=".64" stop-color="#004d71"/><stop offset=".82" stop-color="#006f99"/><stop offset=".99" stop-color="#0097c9"/><stop offset="1" stop-color="#0099cb"/></linearGradient><path fill="url(#a)" d="M-1287.36 555.25c-126.14 0-228.4-102.26-228.4-228.4s102.26-228.4 228.4-228.4 228.4 102.26 228.4 228.4-102.26 228.4-228.4 228.4z"/><linearGradient id="b" x1="-584.96" x2="-535.06" y1="351.8" y2="351.8" gradientUnits="userSpaceOnUse"><stop offset="0" stop-color="#ffba2a"/><stop offset="1" stop-color="#f48c00"/></linearGradient><linearGradient id="c" x1="-587.96" x2="-532.06" y1="351.8" y2="351.8" gradientUnits="userSpaceOnUse"><stop offset="0" stop-color="#ffba2a"/><stop offset="1" stop-color="#f48c00"/></linearGradient><circle cx="-560.01" cy="351.8" r="24.95" fill="url(#b)" stroke="url(#c)" stroke-miterlimit="10" stroke-width="6"/><linearGradient id="d" x1="87.35" x2="196.65" y1="142" y2="142" gradientUnits="userSpaceOnUse"><stop offset="0" stop-color="#ffba2a"/><stop offset="1" stop-color="#f48c00"/></linearGradient><path fill="url(#d)" d="M140.48 185.8a8.1 8.1 0 00-1.13-10.36l-21.58-21.66a15.63 15.63 0 00-3.91-2.85l-2.35-1.06h76.8c4 .15 7.5-2.64 8.25-6.57a7.82 7.82 0 00-7.82-9.07h-77.11l1.68-.78a15.78 15.78 0 004.42-3.13l21.62-21.62a8.08 8.08 0 001.13-10.36 7.83 7.83 0 00-11.73-1.02l-39.1 39.1a7.82 7.82 0 00-.01 11.06l.01.01 39.1 39.1a7.82 7.82 0 0011.73-.79z"/></svg>