<?xml version="1.0" encoding="utf-8"?>
<!-- Generator: Adobe Illustrator 25.2.1, SVG Export Plug-In . SVG Version: 6.00 Build 0)  -->
<svg version="1.1" id="Layer_1" xmlns="http://www.w3.org/2000/svg" xmlns:xlink="http://www.w3.org/1999/xlink" x="0px" y="0px"
	 viewBox="0 0 1991 1138" enable-background="new 0 0 1991 1138" xml:space="preserve">
<linearGradient id="SVGID_1_" gradientUnits="userSpaceOnUse" x1="164.2899" y1="1178.7435" x2="2360.4771" y2="-449.8875">
	<stop  offset="0" style="stop-color:#00112A"/>
	<stop  offset="0.144" style="stop-color:#00152F"/>
	<stop  offset="0.3031" style="stop-color:#00203C"/>
	<stop  offset="0.4695" style="stop-color:#003352"/>
	<stop  offset="0.6409" style="stop-color:#004D71"/>
	<stop  offset="0.8162" style="stop-color:#006F99"/>
	<stop  offset="0.9924" style="stop-color:#0097C9"/>
	<stop  offset="1" style="stop-color:#0099CB"/>
</linearGradient>
<path fill="url(#SVGID_1_)" d="M1912.84,1124.68H78.16c-43.17,0-78.16-34.99-78.16-78.16V78.16C0,34.99,34.99,0,78.16,0h1834.67
	c43.17,0,78.16,34.99,78.16,78.16v968.36C1991,1089.69,1956.01,1124.68,1912.84,1124.68z"/>
<g>
	<linearGradient id="SVGID_2_" gradientUnits="userSpaceOnUse" x1="0" y1="571.1931" x2="1991" y2="571.1931">
		<stop  offset="0" style="stop-color:#FFBA2A"/>
		<stop  offset="1" style="stop-color:#F48C00"/>
	</linearGradient>
	<path fill="url(#SVGID_2_)" d="M1934.4,23c18.53,0,33.6,15.07,33.6,33.6v1029.18c0,18.53-15.07,33.6-33.6,33.6H56.6
		c-18.53,0-33.6-15.07-33.6-33.6V56.6C23,38.07,38.07,23,56.6,23H1934.4 M1934.4,0H56.6C25.34,0,0,25.34,0,56.6v1029.18
		c0,31.26,25.34,56.6,56.6,56.6H1934.4c31.26,0,56.6-25.34,56.6-56.6V56.6C1991,25.34,1965.66,0,1934.4,0L1934.4,0z"/>
</g>
</svg>
