<svg xmlns="http://www.w3.org/2000/svg" viewBox="0 0 284 284"><defs/><linearGradient id="a" x1="-1459.43" x2="-1004.8" y1="454.45" y2="117.31" gradientUnits="userSpaceOnUse"><stop offset="0" stop-color="#00112a"/><stop offset=".14" stop-color="#00152f"/><stop offset=".3" stop-color="#00203c"/><stop offset=".47" stop-color="#003352"/><stop offset=".64" stop-color="#004d71"/><stop offset=".82" stop-color="#006f99"/><stop offset=".99" stop-color="#0097c9"/><stop offset="1" stop-color="#0099cb"/></linearGradient><path fill="url(#a)" d="M-1287.36 555.25c-126.14 0-228.4-102.26-228.4-228.4s102.26-228.4 228.4-228.4 228.4 102.26 228.4 228.4-102.26 228.4-228.4 228.4z"/><linearGradient id="b" x1="-584.96" x2="-535.06" y1="351.8" y2="351.8" gradientUnits="userSpaceOnUse"><stop offset="0" stop-color="#ffba2a"/><stop offset="1" stop-color="#f48c00"/></linearGradient><linearGradient id="c" x1="-587.96" x2="-532.06" y1="351.8" y2="351.8" gradientUnits="userSpaceOnUse"><stop offset="0" stop-color="#ffba2a"/><stop offset="1" stop-color="#f48c00"/></linearGradient><circle cx="-560.01" cy="351.8" r="24.95" fill="url(#b)" stroke="url(#c)" stroke-miterlimit="10" stroke-width="6"/><linearGradient id="d" x1="108.6" x2="175.4" y1="142" y2="142" gradientUnits="userSpaceOnUse"><stop offset="0" stop-color="#ffba2a"/><stop offset="1" stop-color="#f48c00"/></linearGradient><path fill="url(#d)" d="M117.25 95.61c5.95-5.71 14.03-8.57 24.25-8.57 10.21 0 18.41 2.76 24.61 8.28 6.19 5.52 9.29 13.24 9.29 23.16s-2.81 17.11-8.42 21.56c-5.61 4.45-13.94 6.78-24.97 6.97v15.83h-19.16v-29.33h8.28c8.32 0 14.49-1.06 18.51-3.19 4.02-2.13 6.03-6.29 6.03-12.49 0-4.26-1.23-7.64-3.7-10.16-2.47-2.52-5.86-3.77-10.16-3.77-4.31 0-7.7 1.23-10.16 3.7-2.47 2.47-3.7 5.83-3.7 10.09h-19.31c-.22-9.01 2.66-16.37 8.61-22.08zm7.4 98a11.1 11.1 0 01-3.41-8.28c0-3.29 1.14-6.05 3.41-8.28a11.37 11.37 0 018.28-3.34c3.24 0 6 1.11 8.28 3.34a11.15 11.15 0 013.41 8.28c0 3.29-1.14 6.05-3.41 8.28a11.39 11.39 0 01-8.28 3.34c-3.24 0-6-1.11-8.28-3.34z"/></svg>