<?xml version="1.0" encoding="utf-8"?>
<!-- Generator: Adobe Illustrator 21.1.0, SVG Export Plug-In . SVG Version: 6.00 Build 0)  -->
<svg version="1.1" id="Layer_1" xmlns="http://www.w3.org/2000/svg" xmlns:xlink="http://www.w3.org/1999/xlink" x="0px" y="0px"
	 viewBox="0 0 284 284" enable-background="new 0 0 284 284" xml:space="preserve">
<g display="none">
	
		<linearGradient id="SVGID_1_" gradientUnits="userSpaceOnUse" x1="97.2923" y1="2064" x2="186.6" y2="2064" gradientTransform="matrix(1 0 0 1 0 -1922)">
		<stop  offset="0" style="stop-color:#00FFFF"/>
		<stop  offset="0.3886" style="stop-color:#00FDFE"/>
		<stop  offset="0.5286" style="stop-color:#00F6FC"/>
		<stop  offset="0.6284" style="stop-color:#00EBF9"/>
		<stop  offset="0.709" style="stop-color:#01DAF3"/>
		<stop  offset="0.7781" style="stop-color:#01C4EC"/>
		<stop  offset="0.8394" style="stop-color:#01A8E4"/>
		<stop  offset="0.8948" style="stop-color:#0288DA"/>
		<stop  offset="0.9457" style="stop-color:#0262CE"/>
		<stop  offset="0.991" style="stop-color:#0339C1"/>
		<stop  offset="1" style="stop-color:#0330BE"/>
	</linearGradient>
	<path display="inline" fill="url(#SVGID_1_)" d="M108.6,81.8c7.8-7.7,18.5-11.6,32.2-11.6s24.8,3.6,33.2,10.9s12.6,17.4,12.6,30.3
		s-3.6,22.2-10.8,27.9s-17.7,8.7-31.4,9v17.9H114v-38.8h12.6c9.8,0,17-1.1,21.7-3.4c4.6-2.3,7-6.6,7-13c0-4.3-1.2-7.7-3.7-10.4
		c-2.5-2.6-5.8-4-10.2-4c-4.3,0-7.7,1.3-10.2,3.9s-3.7,6.1-3.7,10.5H97.3C97.1,99.3,100.8,89.6,108.6,81.8z M130,213.8
		c-5,0-9.1-1.7-12.5-5.1c-3.4-3.4-5.1-7.6-5.1-12.5c0-5,1.7-9.1,5.1-12.5s7.6-5.1,12.5-5.1c5,0,9.1,1.7,12.5,5.1s5.1,7.6,5.1,12.5
		c0,5-1.7,9.1-5.1,12.5C139.2,212.1,135,213.8,130,213.8z"/>
</g>
<g>
	
		<linearGradient id="SVGID_2_" gradientUnits="userSpaceOnUse" x1="97.2982" y1="144" x2="186.7" y2="144" gradientTransform="matrix(1 0 0 -1 0 286)">
		<stop  offset="0" style="stop-color:#00FFFF"/>
		<stop  offset="0.3886" style="stop-color:#00FDFE"/>
		<stop  offset="0.5286" style="stop-color:#00F6FC"/>
		<stop  offset="0.6284" style="stop-color:#00EBF9"/>
		<stop  offset="0.709" style="stop-color:#01DAF3"/>
		<stop  offset="0.7781" style="stop-color:#01C4EC"/>
		<stop  offset="0.8394" style="stop-color:#01A8E4"/>
		<stop  offset="0.8948" style="stop-color:#0288DA"/>
		<stop  offset="0.9457" style="stop-color:#0262CE"/>
		<stop  offset="0.991" style="stop-color:#0339C1"/>
		<stop  offset="1" style="stop-color:#0330BE"/>
	</linearGradient>
	<path fill="url(#SVGID_2_)" d="M109.3,78c8.1-7.6,19-11.4,32.5-11.4s24.4,3.7,32.6,11.2s12.3,18,12.3,31.7s-3.9,23.6-11.8,29.9
		c-7.9,6.3-19.5,9.5-35,9.6v24.4h-21.6v-40h9.6c12.5,0.1,21.8-1.5,27.9-4.9c6.1-3.4,9.1-10.1,9.1-20.1c0-7.1-2-12.6-6.1-16.6
		s-9.7-6-16.9-6s-12.9,1.9-17,5.8c-4.1,3.9-6.2,9.3-6.2,16.2H97.3C97.2,95.5,101.2,85.6,109.3,78z M119.9,213.4
		c-2.7-2.7-4-5.9-4-9.8c0-3.9,1.3-7.1,4-9.8s5.9-4,9.7-4s7,1.3,9.7,4s4,5.9,4,9.8c0,3.9-1.3,7.1-4,9.8s-5.9,4-9.7,4
		S122.6,216.1,119.9,213.4z"/>
</g>
</svg>
