<?xml version="1.0" encoding="utf-8"?>
<!-- Generator: Adobe Illustrator 25.2.1, SVG Export Plug-In . SVG Version: 6.00 Build 0)  -->
<svg version="1.1" id="Layer_1" xmlns="http://www.w3.org/2000/svg" xmlns:xlink="http://www.w3.org/1999/xlink" x="0px" y="0px"
	 width="1138px" height="285px" viewBox="0 0 1138 285" enable-background="new 0 0 1138 285" xml:space="preserve">
<linearGradient id="SVGID_1_" gradientUnits="userSpaceOnUse" x1="232.9241" y1="142.5" x2="905.0759" y2="142.5">
	<stop  offset="0" style="stop-color:#312783"/>
	<stop  offset="0.5631" style="stop-color:#FFBA2A"/>
	<stop  offset="1" style="stop-color:#F48C00"/>
</linearGradient>
<path fill="url(#SVGID_1_)" d="M841.1,206.5H296.9c-35.3,0-64-28.7-64-64v0c0-35.3,28.7-64,64-64h544.2c35.3,0,64,28.7,64,64v0
	C905.1,177.8,876.4,206.5,841.1,206.5z"/>
<g>
	<path fill="#FFFFFF" d="M364,113.1c-10.6,0-19.2,8.2-20.1,18.5c-0.3,0-0.6-0.1-0.9-0.1c-0.3,0-0.6,0-0.9,0.1
		c-0.8-10.3-9.5-18.5-20.1-18.5c-10.5,0-19.2,8.2-20.1,18.5c-0.3,0-0.6-0.1-0.9-0.1c-0.7,0-1.5,0.1-2.2,0.1
		c-0.8-10.4-9.5-18.6-20.1-18.6c-11.1,0-20.2,9-20.2,20.2c0,11.1,9,20.2,20.2,20.2c0.7,0,1.5,0,2.2-0.1c0.8,10.4,9.5,18.6,20.1,18.6
		c10.6,0,19.2-8.2,20.1-18.5c0.3,0,0.6,0,0.9,0c0.3,0,0.6,0,0.9,0c0.8,10.3,9.5,18.5,20.1,18.5c10.6,0,19.2-8.2,20.1-18.5
		c0.3,0,0.6,0,0.9,0c11.1,0,20.2-9,20.2-20.2C384.1,122.2,375.1,113.1,364,113.1L364,113.1z M262,133.3c0-9.2,7.5-16.8,16.8-16.8
		c8.9,0,16.2,7,16.7,15.9c-7.8,2.3-13.7,9.1-14.5,17.5c-0.7,0.1-1.5,0.2-2.2,0.2C269.5,150,262,142.5,262,133.3L262,133.3z
		 M295.2,136c-1,6-5.2,10.9-10.8,13C285.5,143,289.6,138.1,295.2,136L295.2,136z M301,168.5c-8.9,0-16.2-7-16.7-15.9
		c7.8-2.3,13.7-9.1,14.5-17.5c0.7-0.1,1.5-0.2,2.2-0.2c0.3,0,0.6,0,0.9,0c0.8,8.8,7.3,16.1,15.8,17.9
		C317,161.6,309.8,168.5,301,168.5L301,168.5z M305.4,135.6c6.4,1.7,11.2,7.2,12.2,13.8C311.2,147.7,306.3,142.3,305.4,135.6
		L305.4,135.6z M321,150c-0.8-8.9-7.3-16.1-15.8-17.9c0.6-8.7,7.9-15.5,16.7-15.5c8.8,0,16.1,6.9,16.7,15.5
		c-8.5,1.9-15,9.1-15.8,17.9c-0.3,0-0.6,0-0.9,0C321.7,150,321.4,150,321,150L321,150z M338.6,135.6c-0.9,6.7-5.8,12.1-12.2,13.8
		C327.3,142.8,332.2,137.3,338.6,135.6L338.6,135.6z M343,168.5c-8.8,0-16.1-6.9-16.7-15.5c8.5-1.9,15-9.1,15.8-17.9
		c0.3,0,0.6,0,0.9,0c0.3,0,0.6,0,0.9,0c0.8,8.9,7.3,16.1,15.8,17.9C359.1,161.6,351.8,168.5,343,168.5L343,168.5z M347.4,135.6
		c6.4,1.7,11.2,7.2,12.2,13.8C353.2,147.7,348.3,142.3,347.4,135.6L347.4,135.6z M364,150c-0.3,0-0.6,0-0.9-0.1
		c-0.8-8.9-7.3-16.1-15.8-17.9c0.6-8.7,7.9-15.5,16.7-15.5c9.2,0,16.8,7.5,16.8,16.8C380.7,142.5,373.2,150,364,150L364,150z
		 M364,150"/>
</g>
</svg>
