<?xml version="1.0" encoding="utf-8"?>
<!-- Generator: Adobe Illustrator 25.2.1, SVG Export Plug-In . SVG Version: 6.00 Build 0)  -->
<svg version="1.1" id="Layer_1" xmlns="http://www.w3.org/2000/svg" xmlns:xlink="http://www.w3.org/1999/xlink" x="0px" y="0px"
	 viewBox="0 0 284 284" enable-background="new 0 0 284 284" xml:space="preserve">
<linearGradient id="SVGID_1_" gradientUnits="userSpaceOnUse" x1="56.7097" y1="205.2489" x2="282.06" y2="38.1354">
	<stop  offset="0" style="stop-color:#00112A"/>
	<stop  offset="0.144" style="stop-color:#00152F"/>
	<stop  offset="0.3031" style="stop-color:#00203C"/>
	<stop  offset="0.4695" style="stop-color:#003352"/>
	<stop  offset="0.6409" style="stop-color:#004D71"/>
	<stop  offset="0.8162" style="stop-color:#006F99"/>
	<stop  offset="0.9924" style="stop-color:#0097C9"/>
	<stop  offset="1" style="stop-color:#0099CB"/>
</linearGradient>
<linearGradient id="SVGID_2_" gradientUnits="userSpaceOnUse" x1="23.7862" y1="142" x2="260.2138" y2="142">
	<stop  offset="0" style="stop-color:#FFBA2A"/>
	<stop  offset="1" style="stop-color:#F48C00"/>
</linearGradient>
<circle fill="url(#SVGID_1_)" stroke="url(#SVGID_2_)" stroke-width="10" stroke-miterlimit="10" cx="142" cy="142" r="113.21"/>
<g>
	<linearGradient id="SVGID_3_" gradientUnits="userSpaceOnUse" x1="81.4215" y1="142" x2="148.978" y2="142">
		<stop  offset="0" style="stop-color:#FFBA2A"/>
		<stop  offset="1" style="stop-color:#F48C00"/>
	</linearGradient>
	<path fill="url(#SVGID_3_)" d="M145.38,91.11c-2.2-1.24-4.79-1.2-6.96,0.1c-0.1,0.06-0.2,0.13-0.29,0.21l-30.51,25.82H83.68
		c-1.24,0-2.25,1.01-2.25,2.25v42.78c0,0.61,0.24,1.18,0.66,1.6c0.43,0.42,0.99,0.66,1.6,0.66l23.89-0.01l30.49,28.02
		c0.12,0.1,0.24,0.19,0.36,0.26c1.11,0.67,2.34,1,3.56,1c1.17,0,2.33-0.3,3.4-0.9c2.25-1.26,3.59-3.58,3.59-6.2V97.32
		C148.98,94.7,147.64,92.38,145.38,91.11L145.38,91.11z M144.47,186.69c0,0.97-0.48,1.82-1.29,2.29c-0.35,0.2-1.23,0.57-2.25,0.06
		l-30.23-27.76v-10.26c0-1.24-1-2.25-2.24-2.25c-1.26,0-2.25,1.01-2.25,2.25v8.99l-20.26,0.01v-38.27h20.26v9
		c0,1.24,1,2.25,2.25,2.25c1.24,0,2.24-1.01,2.24-2.25v-10.22l30.19-25.54c1.03-0.54,1.93-0.15,2.29,0.04
		c0.81,0.46,1.29,1.32,1.29,2.29V186.69z M144.47,186.69"/>
	<linearGradient id="SVGID_4_" gradientUnits="userSpaceOnUse" x1="165.8096" y1="140.8819" x2="198.5785" y2="140.8819">
		<stop  offset="0" style="stop-color:#FFBA2A"/>
		<stop  offset="1" style="stop-color:#F48C00"/>
	</linearGradient>
	<path fill="url(#SVGID_4_)" d="M168.79,99.33c-1.18-0.4-2.46,0.24-2.86,1.42c-0.41,1.18,0.23,2.45,1.41,2.86
		c15.99,5.42,26.73,20.41,26.73,37.27c0,16.85-10.72,31.83-26.68,37.28c-1.18,0.39-1.82,1.68-1.41,2.86
		c0.32,0.93,1.2,1.53,2.13,1.53c0.24,0,0.48-0.04,0.73-0.12c17.78-6.07,29.73-22.76,29.73-41.54
		C198.58,122.08,186.6,105.39,168.79,99.33L168.79,99.33z M168.79,99.33"/>
	<linearGradient id="SVGID_5_" gradientUnits="userSpaceOnUse" x1="153.483" y1="140.88" x2="178.3144" y2="140.88">
		<stop  offset="0" style="stop-color:#FFBA2A"/>
		<stop  offset="1" style="stop-color:#F48C00"/>
	</linearGradient>
	<path fill="url(#SVGID_5_)" d="M178.31,140.88c0-13.45-9.03-25.45-21.96-29.18c-1.2-0.34-2.44,0.34-2.78,1.54
		c-0.35,1.19,0.34,2.44,1.54,2.78c11.01,3.19,18.69,13.41,18.69,24.86c0,11.46-7.68,21.68-18.69,24.86
		c-1.2,0.35-1.89,1.59-1.54,2.79c0.28,0.99,1.18,1.63,2.15,1.63c0.21,0,0.42-0.03,0.63-0.09
		C169.29,166.33,178.31,154.32,178.31,140.88L178.31,140.88z M178.31,140.88"/>
</g>
</svg>
