<?xml version="1.0" encoding="utf-8"?>
<!-- Generator: Adobe Illustrator 25.2.1, SVG Export Plug-In . SVG Version: 6.00 Build 0)  -->
<svg version="1.1" id="Layer_1" xmlns="http://www.w3.org/2000/svg" xmlns:xlink="http://www.w3.org/1999/xlink" x="0px" y="0px"
	 viewBox="0 0 284 284" enable-background="new 0 0 284 284" xml:space="preserve">
<linearGradient id="SVGID_1_" gradientUnits="userSpaceOnUse" x1="56.7097" y1="205.2489" x2="282.06" y2="38.1354">
	<stop  offset="0" style="stop-color:#00112A"/>
	<stop  offset="0.144" style="stop-color:#00152F"/>
	<stop  offset="0.3031" style="stop-color:#00203C"/>
	<stop  offset="0.4695" style="stop-color:#003352"/>
	<stop  offset="0.6409" style="stop-color:#004D71"/>
	<stop  offset="0.8162" style="stop-color:#006F99"/>
	<stop  offset="0.9924" style="stop-color:#0097C9"/>
	<stop  offset="1" style="stop-color:#0099CB"/>
</linearGradient>
<linearGradient id="SVGID_2_" gradientUnits="userSpaceOnUse" x1="23.7862" y1="142" x2="260.2138" y2="142">
	<stop  offset="0" style="stop-color:#FFBA2A"/>
	<stop  offset="1" style="stop-color:#F48C00"/>
</linearGradient>
<circle fill="url(#SVGID_1_)" stroke="url(#SVGID_2_)" stroke-width="10" stroke-miterlimit="10" cx="142" cy="142" r="113.21"/>
<g>
	<linearGradient id="SVGID_3_" gradientUnits="userSpaceOnUse" x1="162.0386" y1="139.7787" x2="202.102" y2="139.7787">
		<stop  offset="0" style="stop-color:#FFBA2A"/>
		<stop  offset="1" style="stop-color:#F48C00"/>
	</linearGradient>
	<path fill="url(#SVGID_3_)" d="M185.22,139.78l16.23-16.24c0.87-0.87,0.87-2.27,0-3.14c-0.87-0.87-2.27-0.87-3.14,0l-16.24,16.23
		l-16.24-16.23c-0.87-0.87-2.27-0.87-3.14,0c-0.87,0.87-0.87,2.27,0,3.14l16.23,16.24l-16.23,16.24c-0.87,0.87-0.87,2.27,0,3.14
		c0.43,0.43,1,0.65,1.58,0.65c0.56,0,1.13-0.22,1.56-0.65l16.24-16.23l16.24,16.23c0.43,0.43,1,0.65,1.56,0.65
		c0.58,0,1.14-0.22,1.58-0.65c0.87-0.87,0.87-2.27,0-3.14L185.22,139.78z M185.22,139.78"/>
	<linearGradient id="SVGID_4_" gradientUnits="userSpaceOnUse" x1="81.898" y1="142" x2="148.6796" y2="142">
		<stop  offset="0" style="stop-color:#FFBA2A"/>
		<stop  offset="1" style="stop-color:#F48C00"/>
	</linearGradient>
	<path fill="url(#SVGID_4_)" d="M145.13,91.69c-2.18-1.23-4.74-1.19-6.88,0.1c-0.1,0.06-0.19,0.13-0.28,0.21l-30.16,25.52H84.13
		c-1.23,0-2.23,1-2.23,2.23v42.29c0,0.6,0.24,1.16,0.65,1.58c0.43,0.41,0.98,0.65,1.58,0.65l23.62-0.01l30.14,27.69
		c0.12,0.1,0.24,0.19,0.36,0.26c1.1,0.66,2.32,0.99,3.52,0.99c1.15,0,2.3-0.29,3.36-0.89c2.23-1.25,3.55-3.54,3.55-6.13V97.83
		C148.68,95.25,147.35,92.95,145.13,91.69L145.13,91.69z M144.22,186.18c0,0.96-0.48,1.8-1.28,2.26c-0.35,0.2-1.22,0.57-2.23,0.06
		l-29.88-27.44v-10.14c0-1.23-0.99-2.23-2.21-2.23c-1.24,0-2.23,1-2.23,2.23v8.89l-20.03,0.01v-37.83h20.03v8.9
		c0,1.23,0.99,2.23,2.23,2.23c1.23,0,2.21-1,2.21-2.23v-10.1l29.85-25.25c1.02-0.53,1.91-0.15,2.26,0.04
		c0.8,0.46,1.28,1.31,1.28,2.26V186.18z M144.22,186.18"/>
</g>
</svg>
