<?xml version="1.0" encoding="utf-8"?>
<!-- Generator: Adobe Illustrator 25.2.1, SVG Export Plug-In . SVG Version: 6.00 Build 0)  -->
<svg version="1.1" id="Layer_1" xmlns="http://www.w3.org/2000/svg" xmlns:xlink="http://www.w3.org/1999/xlink" x="0px" y="0px"
	 viewBox="0 0 2048 324" enable-background="new 0 0 2048 324" xml:space="preserve">
<linearGradient id="SVGID_1_" gradientUnits="userSpaceOnUse" x1="331.7004" y1="675.39" x2="2160.8643" y2="-681.0667">
	<stop  offset="0" style="stop-color:#00112A"/>
	<stop  offset="0.144" style="stop-color:#00152F"/>
	<stop  offset="0.3031" style="stop-color:#00203C"/>
	<stop  offset="0.4695" style="stop-color:#003352"/>
	<stop  offset="0.6409" style="stop-color:#004D71"/>
	<stop  offset="0.8162" style="stop-color:#006F99"/>
	<stop  offset="0.9924" style="stop-color:#0097C9"/>
	<stop  offset="1" style="stop-color:#0099CB"/>
</linearGradient>
<rect fill="url(#SVGID_1_)" width="2048" height="324"/>
<g>
	<path fill="#FFFFFF" d="M2011.4,277.5l-5.3-1.4l1.4-5.3c0.6-2.1-0.7-4.3-2.8-4.8l0,0c-2.1-0.6-4.3,0.7-4.8,2.8l-1.4,5.3l-5.3-1.4
		c-2.1-0.6-4.3,0.7-4.8,2.8l0,0c-0.6,2.1,0.7,4.3,2.8,4.8l5.3,1.4l-1.4,5.3c-0.6,2.1,0.7,4.3,2.8,4.8l0,0c2.1,0.6,4.3-0.7,4.8-2.8
		l1.4-5.3l5.3,1.4c2.1,0.6,4.3-0.7,4.8-2.8l0,0C2014.7,280.2,2013.5,278.1,2011.4,277.5z"/>
	<path fill="none" stroke="#FFFFFF" stroke-width="2" stroke-miterlimit="10" d="M104.7,41l-4.2,3.2l-3.2-4.2
		c-1.3-1.7-3.6-2-5.3-0.7l0,0c-1.7,1.3-2,3.6-0.7,5.3l3.2,4.2l-4.2,3.2c-1.7,1.3-2,3.6-0.7,5.3l0,0c1.3,1.7,3.6,2,5.3,0.7l4.2-3.2
		l3.2,4.2c1.3,1.7,3.6,2,5.3,0.7l0,0c1.7-1.3,2-3.6,0.7-5.3l-3.2-4.2l4.2-3.2c1.7-1.3,2-3.6,0.7-5.3l0,0
		C108.7,40,106.4,39.7,104.7,41z"/>
	
		<ellipse transform="matrix(0.8534 -0.5213 0.5213 0.8534 184.4913 1066.6676)" fill="none" stroke="#FFFFFF" stroke-width="2" stroke-miterlimit="10" cx="1988.3" cy="205.4" rx="8.2" ry="8.2"/>
	<ellipse transform="matrix(0.7071 -0.7071 0.7071 0.7071 -2.9362 32.6613)" fill="#00C4FF" cx="38" cy="19.9" rx="7.8" ry="7.8"/>
	<circle fill="none" stroke="#00C4FF" stroke-width="2" stroke-miterlimit="10" cx="52.9" cy="241.3" r="7.8"/>
	<circle fill="none" stroke="#00C4FF" stroke-width="2" stroke-miterlimit="10" cx="319.3" cy="39.4" r="7.8"/>
	<polygon fill="#00C4FF" points="1840.8,91.6 1845.3,110.8 1860.1,95.3 	"/>
	<polygon fill="#00C4FF" points="1946.9,21.6 1935.4,19.6 1940.4,31.3 	"/>
	<polygon fill="#00C4FF" points="86.8,282.7 82.8,293.2 94.8,290.6 	"/>
	<polygon fill="#FFFFFF" points="37.4,278.8 41.7,297.2 55.9,282.4 	"/>
	<polygon fill="none" stroke="#FFFFFF" stroke-width="2" stroke-miterlimit="10" points="148.8,26.7 137.7,24.8 142.5,36 	"/>
	<polygon fill="none" stroke="#FFFFFF" stroke-width="2" stroke-miterlimit="10" points="1792.9,38.2 1781.3,36.2 1786.3,47.9 	"/>
	<polygon fill="none" stroke="#FFFFFF" stroke-width="2" stroke-miterlimit="10" points="2009.4,99.1 2019.8,93.8 2008.8,87.4 	"/>
</g>
</svg>
