<svg xmlns="http://www.w3.org/2000/svg" viewBox="0 0 1820 853"><defs/><linearGradient id="a" x1="187.59" x2="2096.32" y1="962.22" y2="-453.24" gradientUnits="userSpaceOnUse"><stop offset="0" stop-color="#00112a"/><stop offset=".14" stop-color="#00152f"/><stop offset=".3" stop-color="#00203c"/><stop offset=".47" stop-color="#003352"/><stop offset=".64" stop-color="#004d71"/><stop offset=".82" stop-color="#006f99"/><stop offset=".99" stop-color="#0097c9"/><stop offset="1" stop-color="#0099cb"/></linearGradient><path fill="url(#a)" d="M1753.1 854.25H66.9A66.72 66.72 0 01.18 787.53V65.46A66.72 66.72 0 0166.9-1.26h1686.2a66.72 66.72 0 0166.72 66.72v722.07a66.72 66.72 0 01-66.72 66.72z"/><linearGradient id="b" x1=".18" x2="1819.82" y1="426.5" y2="426.5" gradientUnits="userSpaceOnUse"><stop offset="0" stop-color="#ffba2a"/><stop offset="1" stop-color="#f48c00"/></linearGradient><path fill="url(#b)" d="M1764.03 18.75a35.83 35.83 0 0135.79 35.79v743.92a35.83 35.83 0 01-35.79 35.79H55.97a35.83 35.83 0 01-35.79-35.79V54.54a35.83 35.83 0 0135.79-35.79h1708.06m0-20H55.97A55.8 55.8 0 00.18 54.54v743.92a55.8 55.8 0 0055.79 55.79h1708.06a55.8 55.8 0 0055.79-55.79V54.54a55.8 55.8 0 00-55.79-55.79z"/></svg>