<?xml version="1.0" encoding="utf-8"?>
<!-- Generator: Adobe Illustrator 25.2.1, SVG Export Plug-In . SVG Version: 6.00 Build 0)  -->
<svg version="1.1" id="Layer_1" xmlns="http://www.w3.org/2000/svg" xmlns:xlink="http://www.w3.org/1999/xlink" x="0px" y="0px"
	 viewBox="0 0 284 284" enable-background="new 0 0 284 284" xml:space="preserve">
<linearGradient id="SVGID_1_" gradientUnits="userSpaceOnUse" x1="56.7097" y1="205.2489" x2="282.06" y2="38.1354">
	<stop  offset="0" style="stop-color:#00112A"/>
	<stop  offset="0.144" style="stop-color:#00152F"/>
	<stop  offset="0.3031" style="stop-color:#00203C"/>
	<stop  offset="0.4695" style="stop-color:#003352"/>
	<stop  offset="0.6409" style="stop-color:#004D71"/>
	<stop  offset="0.8162" style="stop-color:#006F99"/>
	<stop  offset="0.9924" style="stop-color:#0097C9"/>
	<stop  offset="1" style="stop-color:#0099CB"/>
</linearGradient>
<linearGradient id="SVGID_2_" gradientUnits="userSpaceOnUse" x1="23.7862" y1="142" x2="260.2138" y2="142">
	<stop  offset="0" style="stop-color:#FFBA2A"/>
	<stop  offset="1" style="stop-color:#F48C00"/>
</linearGradient>
<circle fill="url(#SVGID_1_)" stroke="url(#SVGID_2_)" stroke-width="10" stroke-miterlimit="10" cx="142" cy="142" r="113.21"/>
<linearGradient id="SVGID_3_" gradientUnits="userSpaceOnUse" x1="97" y1="142" x2="187" y2="142">
	<stop  offset="0" style="stop-color:#FFBA2A"/>
	<stop  offset="1" style="stop-color:#F48C00"/>
</linearGradient>
<path fill="url(#SVGID_3_)" d="M181.82,89.29l-57.47,16.27c-1.75,0.5-2.95,2.1-2.95,3.91v55.12c-2.4-1.4-5.16-2.26-8.13-2.26
	c-8.97,0-16.27,7.29-16.27,16.27c0,8.97,7.29,16.27,16.27,16.27s16.27-7.29,16.27-16.27c0-0.93,0-49.79,0-49.79l49.34-13.94v33.47
	c-2.4-1.4-5.16-2.26-8.13-2.26c-8.97,0-16.27,7.29-16.27,16.27c0,8.97,7.29,16.27,16.27,16.27S187,171.3,187,162.33
	c0-0.93,0-69.13,0-69.13C187,90.52,184.43,88.56,181.82,89.29z"/>
<linearGradient id="SVGID_4_" gradientUnits="userSpaceOnUse" x1="45.3416" y1="136.2438" x2="230.0568" y2="136.2438">
	<stop  offset="0" style="stop-color:#FFBA2A"/>
	<stop  offset="1" style="stop-color:#F48C00"/>
</linearGradient>
<line fill="none" stroke="url(#SVGID_4_)" stroke-width="6" stroke-miterlimit="10" x1="47.14" y1="203.8" x2="228.26" y2="68.69"/>
</svg>
