<svg xmlns="http://www.w3.org/2000/svg" viewBox="0 0 1820 853"><defs/><linearGradient id="a" x1="187.59" x2="2096.32" y1="962.22" y2="-453.24" gradientUnits="userSpaceOnUse"><stop offset="0" stop-color="#00112a"/><stop offset=".14" stop-color="#00152f"/><stop offset=".3" stop-color="#00203c"/><stop offset=".47" stop-color="#003352"/><stop offset=".64" stop-color="#004d71"/><stop offset=".82" stop-color="#006f99"/><stop offset=".99" stop-color="#0097c9"/><stop offset="1" stop-color="#0099cb"/></linearGradient><path fill="url(#a)" d="M1753.1 854.25H66.9A66.72 66.72 0 01.18 787.53V65.46A66.72 66.72 0 0166.9-1.26h1686.2a66.72 66.72 0 0166.72 66.72v722.07a66.72 66.72 0 01-66.72 66.72z"/><linearGradient id="b" x1=".18" x2="1819.82" y1="426.5" y2="426.5" gradientUnits="userSpaceOnUse"><stop offset="0" stop-color="#e6332a"/><stop offset="1" stop-color="#f48c00"/></linearGradient><path fill="url(#b)" d="M1764.03 15.75a38.83 38.83 0 0138.79 38.79v743.92a38.83 38.83 0 01-38.79 38.79H55.97a38.83 38.83 0 01-38.79-38.79V54.54a38.83 38.83 0 0138.79-38.79h1708.06m0-17H55.97A55.8 55.8 0 00.18 54.54v743.92a55.8 55.8 0 0055.79 55.79h1708.06a55.8 55.8 0 0055.79-55.79V54.54a55.8 55.8 0 00-55.79-55.79z"/><g><linearGradient id="c" x1="910" x2="910" y1="574.26" y2="278.74" gradientUnits="userSpaceOnUse"><stop offset="0" stop-color="#e6332a"/><stop offset="1" stop-color="#f48c00"/></linearGradient><path fill="url(#c)" d="M1042.5 278.74l-107 147.97L1042 574.26h-50l-84.5-116.41L828 574.26h-50.5l107-147.97-107-147.54H828l84.5 116.84L992 278.74h50.5z"/></g></svg>