<?xml version="1.0" encoding="utf-8"?>
<!-- Generator: Adobe Illustrator 25.2.1, SVG Export Plug-In . SVG Version: 6.00 Build 0)  -->
<svg version="1.1" id="Layer_1" xmlns="http://www.w3.org/2000/svg" xmlns:xlink="http://www.w3.org/1999/xlink" x="0px" y="0px"
	 viewBox="0 0 1820 853" enable-background="new 0 0 1820 853" xml:space="preserve">
<g>
	
		<linearGradient id="SVGID_1_" gradientUnits="userSpaceOnUse" x1="-0.1563" y1="-245.9655" x2="1819.4437" y2="-245.9655" gradientTransform="matrix(1 0 0 1 0 672)">
		<stop  offset="0" style="stop-color:#E6332A"/>
		<stop  offset="1" style="stop-color:#F48C00"/>
	</linearGradient>
	<path fill="url(#SVGID_1_)" d="M1763.6,15.3c21.4,0,38.8,17.4,38.8,38.8V798c0,21.4-17.4,38.8-38.8,38.8H55.6
		c-21.4,0-38.8-17.4-38.8-38.8V54c0-21.4,17.4-38.8,38.8-38.8L1763.6,15.3 M1763.6-1.7H55.6c-30.8,0-55.8,25-55.8,55.8V798
		c0,30.8,25,55.8,55.8,55.8h1708c30.8,0,55.8-25,55.8-55.8V54C1819.4,23.2,1794.4-1.7,1763.6-1.7L1763.6-1.7z"/>
</g>
</svg>
